contact_force_test_states
version=1
nRows=6
nColumns=61
inDegrees=yes

# SIMM Motion File Header:
name contact_force_test_states
datacolumns 61
datarows 6
otherdata 1
range 0.00000000 0.00015212
endheader
time	/jointset/ground_pelvis/pelvis_list/value	/jointset/ground_pelvis/pelvis_list/speed	/jointset/ground_pelvis/pelvis_rotation/value	/jointset/ground_pelvis/pelvis_rotation/speed	/jointset/ground_pelvis/pelvis_tilt/value	/jointset/ground_pelvis/pelvis_tilt/speed	/jointset/ground_pelvis/pelvis_tx/value	/jointset/ground_pelvis/pelvis_tx/speed	/jointset/ground_pelvis/pelvis_ty/value	/jointset/ground_pelvis/pelvis_ty/speed	/jointset/ground_pelvis/pelvis_tz/value	/jointset/ground_pelvis/pelvis_tz/speed	/jointset/hip_r/hip_adduction_r/value	/jointset/hip_r/hip_adduction_r/speed	/jointset/hip_r/hip_rotation_r/value	/jointset/hip_r/hip_rotation_r/speed	/jointset/hip_r/hip_flexion_r/value	/jointset/hip_r/hip_flexion_r/speed	/jointset/hip_l/hip_adduction_l/value	/jointset/hip_l/hip_adduction_l/speed	/jointset/hip_l/hip_rotation_l/value	/jointset/hip_l/hip_rotation_l/speed	/jointset/hip_l/hip_flexion_l/value	/jointset/hip_l/hip_flexion_l/speed	/jointset/knee_r/knee_flexion_r/value	/jointset/knee_r/knee_flexion_r/speed	/jointset/knee_l/knee_flexion_l/value	/jointset/knee_l/knee_flexion_l/speed	/jointset/ankle_r/ankle_dorsiflexion_r/value	/jointset/ankle_r/ankle_dorsiflexion_r/speed	/jointset/ankle_l/ankle_dorsiflexion_l/value	/jointset/ankle_l/ankle_dorsiflexion_l/speed	/forceset/hamstrings_r/activation	/forceset/hamstrings_r/fiber_length	/forceset/glut_max_r/activation	/forceset/glut_max_r/fiber_length	/forceset/ilipsoas_r/activation	/forceset/ilipsoas_r/fiber_length	/forceset/vasti_r/activation	/forceset/vasti_r/fiber_length	/forceset/gastroc_r/activation	/forceset/gastroc_r/fiber_length	/forceset/soleus_r/activation	/forceset/soleus_r/fiber_length	/forceset/tibia_r/activation	/forceset/tibia_r/fiber_length	/forceset/hamstrings_l/activation	/forceset/hamstrings_l/fiber_length	/forceset/glut_max_l/activation	/forceset/glut_max_l/fiber_length	/forceset/ilipsoas_l/activation	/forceset/ilipsoas_l/fiber_length	/forceset/vasti_l/activation	/forceset/vasti_l/fiber_length	/forceset/gastroc_l/activation	/forceset/gastroc_l/fiber_length	/forceset/soleus_l/activation	/forceset/soleus_l/fiber_length	/forceset/tibia_l/activation	/forceset/tibia_l/fiber_length
      0.00000000	      0.00000000	      0.00000000	      0.00000000	      0.00000000	      0.00000000	      0.00000000	      0.00000000	      0.00000000	      0.95000000	      0.00000000	      0.00000000	      0.00000000	      0.00000000	      0.00000000	      0.00000000	      0.00000000	      0.00000000	      0.00000000	      0.00000000	      0.00000000	      0.00000000	      0.00000000	      0.00000000	      0.00000000	      0.00000000	      0.00000000	      0.00000000	      0.00000000	      0.00000000	      0.00000000	      0.00000000	      0.00000000	      0.05000000	      0.10000000	      0.05000000	      0.10000000	      0.05000000	      0.10000000	      0.05000000	      0.10000000	      0.05000000	      0.10000000	      0.05000000	      0.10000000	      0.05000000	      0.10000000	      0.05000000	      0.10000000	      0.05000000	      0.10000000	      0.05000000	      0.10000000	      0.05000000	      0.10000000	      0.05000000	      0.10000000	      0.05000000	      0.10000000	      0.05000000	      0.10000000
      0.00001951	      0.00000000	     -0.00000000	      0.00000000	      0.00000000	     -0.00000047	     -0.04766193	     -0.00000000	     -0.00046483	      0.95000001	      0.00110981	      0.00000000	      0.00000000	     -0.00000001	     -0.00112301	      0.00000152	      0.15216905	      0.00000380	      0.39610456	      0.00000001	      0.00112301	     -0.00000152	     -0.15216905	      0.00000380	      0.39610456	     -0.00001359	     -1.45454523	     -0.00001359	     -1.45454523	      0.00028692	     28.56156905	      0.00028692	     28.56156905	      0.04998598	      0.10006065	      0.04998598	      0.09999545	      0.04998598	      0.10022573	      0.04998598	      0.09999573	      0.04998598	      0.09989137	      0.04998598	      0.09981597	      0.04998598	      0.09999572	      0.04998598	      0.10006065	      0.04998598	      0.09999545	      0.04998598	      0.10022573	      0.04998598	      0.09999573	      0.04998598	      0.09989137	      0.04998598	      0.09981597	      0.04998598	      0.09999572
      0.00004844	      0.00000000	      0.00000000	     -0.00000000	     -0.00000000	     -0.00000282	     -0.11369727	     -0.00000003	     -0.00113858	      0.95000007	      0.00288282	     -0.00000000	     -0.00000000	     -0.00000008	     -0.00418690	      0.00000880	      0.34630317	      0.00002417	      1.01278350	      0.00000008	      0.00418690	     -0.00000880	     -0.34630317	      0.00002417	      1.01278350	     -0.00009194	     -3.99907570	     -0.00009194	     -3.99907570	      0.00162940	     62.84022127	      0.00162940	     62.84022127	      0.04996520	      0.10014898	      0.04996520	      0.09998871	      0.04996520	      0.10054645	      0.04996520	      0.09998939	      0.04996520	      0.09973140	      0.04996520	      0.09954494	      0.04996520	      0.09998938	      0.04996520	      0.10014898	      0.04996520	      0.09998871	      0.04996520	      0.10054645	      0.04996520	      0.09998939	      0.04996520	      0.09973140	      0.04996520	      0.09954494	      0.04996520	      0.09998938
      0.00007737	      0.00000000	      0.00000000	     -0.00000000	     -0.00000000	     -0.00000697	     -0.17148138	     -0.00000007	     -0.00176263	      0.95000018	      0.00476056	     -0.00000000	     -0.00000000	     -0.00000025	     -0.00764217	      0.00002131	      0.51438643	      0.00006220	      1.61005088	      0.00000025	      0.00764217	     -0.00002131	     -0.51438643	      0.00006220	      1.61005088	     -0.00024527	     -6.58582198	     -0.00024527	     -6.58582198	      0.00385332	     89.86157882	      0.00385332	     89.86157882	      0.04994442	      0.10023544	      0.04994442	      0.09998197	      0.04994442	      0.10085120	      0.04994442	      0.09998306	      0.04994442	      0.09957274	      0.04994442	      0.09927615	      0.04994442	      0.09998304	      0.04994442	      0.10023544	      0.04994442	      0.09998197	      0.04994442	      0.10085120	      0.04994442	      0.09998306	      0.04994442	      0.09957274	      0.04994442	      0.09927615	      0.04994442	      0.09998304
      0.00011475	      0.00000000	     -0.00000000	     -0.00000000	      0.00000000	     -0.00001456	     -0.23255268	     -0.00000015	     -0.00247552	      0.95000040	      0.00729084	     -0.00000000	      0.00000000	     -0.00000062	     -0.01158771	      0.00004413	      0.70196166	      0.00013579	      2.31345346	      0.00000062	      0.01158771	     -0.00004413	     -0.70196166	      0.00013579	      2.31345346	     -0.00055025	     -9.67192213	     -0.00055025	     -9.67192213	      0.00774059	    116.87027346	      0.00774059	    116.87027346	      0.04991760	      0.10034446	      0.04991760	      0.09997327	      0.04991760	      0.10122255	      0.04991760	      0.09997488	      0.04991760	      0.09936969	      0.04991760	      0.09893218	      0.04991760	      0.09997485	      0.04991760	      0.10034446	      0.04991760	      0.09997327	      0.04991760	      0.10122255	      0.04991760	      0.09997488	      0.04991760	      0.09936969	      0.04991760	      0.09893218	      0.04991760	      0.09997485
      0.00015212	      0.00000000	      0.00000000	     -0.00000000	      0.00000000	     -0.00002416	     -0.27866656	     -0.00000025	     -0.00308064	      0.95000072	      0.00990206	     -0.00000000	     -0.00000000	     -0.00000111	     -0.01444849	      0.00007343	      0.86121689	      0.00023401	      2.92723139	      0.00000111	      0.01444849	     -0.00007343	     -0.86121689	      0.00023401	      2.92723139	     -0.00096310	    -12.34946288	     -0.00096310	    -12.34946288	      0.01250757	    137.27944275	      0.01250757	    137.27944275	      0.04989080	      0.10045056	      0.04989080	      0.09996457	      0.04989080	      0.10157020	      0.04989080	      0.09996671	      0.04989080	      0.09916880	      0.04989080	      0.09859185	      0.04989080	      0.09996667	      0.04989080	      0.10045056	      0.04989080	      0.09996457	      0.04989080	      0.10157020	      0.04989080	      0.09996671	      0.04989080	      0.09916880	      0.04989080	      0.09859185	      0.04989080	      0.09996667
